<?xml version="1.0" encoding="UTF-8"?><svg id="Layer_1" xmlns="http://www.w3.org/2000/svg" xmlns:xlink="http://www.w3.org/1999/xlink" viewBox="0 0 3292.72 841.89"><defs><style>.cls-1{fill:url(#New_Gradient_Swatch_2-2);}.cls-2{font-size:164px;}.cls-2,.cls-3{font-family:BrokenConsole-Bold, 'Broken Console';}.cls-3{font-size:98px;}.cls-4{fill:url(#New_Gradient_Swatch_2-8);}.cls-5{fill:url(#New_Gradient_Swatch_2-4);}.cls-6{letter-spacing:-.02em;}.cls-7{letter-spacing:-.03em;}.cls-8{fill:url(#New_Gradient_Swatch_2);}.cls-9{letter-spacing:-.02em;}.cls-10{fill:url(#New_Gradient_Swatch_2-7);}.cls-11{fill:url(#New_Gradient_Swatch_2-3);}.cls-12{fill:url(#New_Gradient_Swatch_2-5);}.cls-13{fill:#ea812a;fill-rule:evenodd;}.cls-14{fill:url(#New_Gradient_Swatch_2-6);}.cls-15{letter-spacing:-.03em;}.cls-16{fill:url(#New_Gradient_Swatch_2-9);}</style><linearGradient id="New_Gradient_Swatch_2" x1="1706.04" y1="418.52" x2="1706.04" y2="553.33" gradientTransform="matrix(1, 0, 0, 1, 0, 0)" gradientUnits="userSpaceOnUse"><stop offset=".08" stop-color="#ee8423"/><stop offset="1" stop-color="#83381d"/></linearGradient><linearGradient id="New_Gradient_Swatch_2-2" x1="1719.62" y1="310.52" x2="1719.62" y2="391.08" xlink:href="#New_Gradient_Swatch_2"/><linearGradient id="New_Gradient_Swatch_2-3" x1="1719.62" y1="310.52" x2="1719.62" y2="391.08" xlink:href="#New_Gradient_Swatch_2"/><linearGradient id="New_Gradient_Swatch_2-4" x1="1719.62" y1="310.52" x2="1719.62" y2="391.08" xlink:href="#New_Gradient_Swatch_2"/><linearGradient id="New_Gradient_Swatch_2-5" x1="1719.62" y1="310.52" x2="1719.62" y2="391.08" xlink:href="#New_Gradient_Swatch_2"/><linearGradient id="New_Gradient_Swatch_2-6" x1="1719.62" y1="310.52" x2="1719.62" y2="391.08" xlink:href="#New_Gradient_Swatch_2"/><linearGradient id="New_Gradient_Swatch_2-7" x1="1719.62" y1="310.52" x2="1719.62" y2="391.08" xlink:href="#New_Gradient_Swatch_2"/><linearGradient id="New_Gradient_Swatch_2-8" x1="1719.62" y1="310.52" x2="1719.62" y2="391.08" xlink:href="#New_Gradient_Swatch_2"/><linearGradient id="New_Gradient_Swatch_2-9" x1="1719.62" y1="310.52" x2="1719.62" y2="391.08" xlink:href="#New_Gradient_Swatch_2"/></defs><g><g><text class="cls-2" transform="translate(1165.58 553.49)"><tspan x="0" y="0">CO</tspan><tspan class="cls-9" x="219.1" y="0">N</tspan><tspan x="370.31" y="0">T</tspan><tspan class="cls-9" x="479.86" y="0">R</tspan><tspan x="586.14" y="0">O</tspan><tspan class="cls-7" x="695.69" y="0">L</tspan><tspan class="cls-6" x="785.39" y="0">L</tspan><tspan x="876.74" y="0">ER</tspan></text><g><path class="cls-8" d="M1265.29,463.46h-30.01v-14.92h-30.01v74.78h30.01v-14.92h30.01v30.01h-15.09v14.92h-59.86v-14.92h-14.92v-104.8h14.92v-15.09h59.86v15.09h15.09v29.85Z"/><path class="cls-8" d="M1359.92,433.61h14.92v104.8h-14.92v14.92h-60.02v-14.92h-14.92v-104.8h14.92v-15.09h60.02v15.09Zm-15.09,14.92h-29.85v74.78h29.85v-74.78Z"/><path class="cls-8" d="M1499.32,418.52h30.01v134.81h-30.01v-30.01h-14.92v-14.92h-14.92v-14.92h-15.09v-14.92h-14.92v-15.09h-14.92v89.87h-30.01v-134.81h30.01v15.09h14.92v14.92h14.92v14.92h15.09v15.09h14.92v14.92h14.92v-74.95Z"/><path class="cls-8" d="M1575.58,448.54h-29.85v-30.01h89.87v30.01h-30.01v104.8h-30.01v-104.8Z"/><path class="cls-8" d="M1730.23,433.61h14.92v44.94h-14.92v29.85h14.92v44.94h-29.85v-44.94h-30.01v44.94h-30.01v-134.81h74.95v15.09Zm-14.92,14.92h-30.01v30.01h30.01v-30.01Z"/><path class="cls-8" d="M1836.5,433.61h14.92v104.8h-14.92v14.92h-60.02v-14.92h-14.92v-104.8h14.92v-15.09h60.02v15.09Zm-15.09,14.92h-29.85v74.78h29.85v-74.78Z"/><path class="cls-8" d="M1901.12,523.32h44.94v30.01h-60.02v-14.92h-14.92v-119.88h30.01v104.8Z"/><path class="cls-8" d="M1990.83,523.32h44.94v30.01h-60.02v-14.92h-14.92v-119.88h30.01v104.8Z"/><path class="cls-8" d="M2067.25,418.52h59.86v30.01h-44.94v27.72h44.94v19.35h-44.94v27.72h44.94v30.01h-59.86v-14.92h-15.09v-104.8h15.09v-15.09Z"/><path class="cls-8" d="M2221.74,433.61h14.92v44.94h-14.92v29.85h14.92v44.94h-29.85v-44.94h-30.01v44.94h-30.01v-134.81h74.95v15.09Zm-14.92,14.92h-30.01v30.01h30.01v-30.01Z"/></g></g><g><text class="cls-3" transform="translate(1454.83 391.18)"><tspan x="0" y="0">Air</tspan><tspan class="cls-15" x="187.37" y="0">p</tspan><tspan x="249.8" y="0">lane</tspan></text><g><path class="cls-1" d="M1514.41,328.46h8.92v62.62h-17.84v-21.07h-26.85v21.07h-17.93v-62.62h9.02v-8.92h8.92v-9.02h26.85v9.02h8.92v8.92Zm-8.92,8.92h-9.02v-8.92h-8.92v8.92h-8.92v21.07h26.85v-21.07Z"/><path class="cls-11" d="M1535.09,373.15h8.92v-44.69h-8.92v-17.93h35.77v17.93h-8.92v44.69h8.92v17.93h-35.77v-17.93Z"/><path class="cls-5" d="M1627.4,319.54h8.92v26.85h-8.92v17.84h8.92v26.85h-17.84v-26.85h-17.93v26.85h-17.93v-80.56h44.79v9.02Zm-8.92,8.92h-17.93v17.93h17.93v-17.93Z"/><path class="cls-12" d="M1701.69,319.54v26.85h-8.92v8.92h-8.92v8.92h-17.93v26.85h-17.84v-80.56h44.69v9.02h8.92Zm-17.84,8.92h-17.93v17.93h17.93v-17.93Z"/><path class="cls-14" d="M1728.44,373.15h26.85v17.93h-35.87v-8.92h-8.92v-71.64h17.93v62.62Z"/><path class="cls-10" d="M1820.76,328.46h8.92v62.62h-17.84v-21.07h-26.85v21.07h-17.93v-62.62h9.02v-8.92h8.92v-9.02h26.85v9.02h8.92v8.92Zm-8.92,8.92h-9.02v-8.92h-8.92v8.92h-8.92v21.07h26.85v-21.07Z"/><path class="cls-4" d="M1904.06,310.52h17.93v80.56h-17.93v-17.93h-8.92v-8.92h-8.92v-8.92h-9.02v-8.92h-8.92v-9.02h-8.92v53.7h-17.93v-80.56h17.93v9.02h8.92v8.92h8.92v8.92h9.02v9.02h8.92v8.92h8.92v-44.79Z"/><path class="cls-16" d="M1942.77,310.52h35.77v17.93h-26.85v16.56h26.85v11.56h-26.85v16.56h26.85v17.93h-35.77v-8.92h-9.02v-62.62h9.02v-9.02Z"/></g></g></g><g><path class="cls-13" d="M629.72,272.94c-29.7,43.8-45.4,94.9-45.4,148,0,145.5,118.4,263.8,263.8,263.8s263.8-118.4,263.8-263.8-115.9-262-263.9-263.8c-87.4,0-167,42.2-218.3,115.8h0Zm218.4,420.2c-72.7,0-141.1-28.3-192.5-79.7-51.4-51.4-79.7-119.8-79.7-192.5,0-54.8,16.2-107.6,46.9-152.8h0c52.9-75.9,135-119.4,225.3-119.4,73.4,.9,141.8,29.3,192.7,79.8,51.3,50.9,79.5,119.3,79.5,192.4s-28.3,141.1-79.7,192.5c-51.4,51.4-119.8,79.7-192.5,79.7h0Z"/><path class="cls-13" d="M1035.72,378.54c-1.9,0-3.6-1.3-4.1-3.2-20.9-84.4-96.4-143.4-183.5-143.4-2.3,0-4.2-1.9-4.2-4.2s1.9-4.2,4.2-4.2c45,0,87.4,14.8,122.6,42.7,34.1,27.1,58.7,65.1,69.1,107.2,.6,2.2-.8,4.5-3.1,5.1h-1Zm-352.8,146.8c-1.4,0-2.8-.7-3.6-2-18.7-30.8-28.6-66.2-28.6-102.4,0-39.7,11.7-78,33.9-110.7,1.3-1.9,3.9-2.4,5.8-1.1,1.9,1.3,2.4,3.9,1.1,5.8-21.3,31.3-32.5,68-32.5,106,0,34.7,9.5,68.6,27.4,98.1,1.2,2,.6,4.6-1.4,5.8-.6,.4-1.4,.6-2.1,.5h0Zm165.2,93.1c-53,0-102.8-20.7-140.1-58.4-1.6-1.6-1.6-4.3,0-5.9s4.3-1.6,5.9,0c35.8,36,83.4,55.9,134.2,55.9s98.4-19.8,134.2-55.8,55.2-83.8,54.9-134.6c0-2.3,1.9-4.2,4.2-4.2h0c2.3,0,4.2,1.9,4.2,4.2,.4,53-20,102.9-57.3,140.5-37.5,37.5-87.2,58.3-140.2,58.3h0Z"/><path class="cls-13" d="M959.52,465.54c-.5,0-1-.1-1.4-.2-2.2-.8-3.3-3.2-2.5-5.4,4.5-12.5,6.8-25.6,6.8-39,0-63-51.3-114.3-114.3-114.3-2.3,0-4.2-1.9-4.2-4.2s1.9-4.2,4.2-4.2c67.6,0,122.7,55,122.7,122.6,0,14.4-2.5,28.4-7.3,41.8-.7,1.9-2.3,2.9-4,2.9h0Zm-111.4,78.1c-67.6,0-122.6-55-122.6-122.6,0-24.7,7.3-48.6,21.2-68.9,1.3-1.9,3.9-2.4,5.8-1.1s2.4,3.9,1.1,5.8c-12.9,19-19.7,41.2-19.7,64.2,0,63,51.3,114.3,114.3,114.3,32.3,0,63.2-13.8,84.8-37.7,1.6-1.7,4.2-1.8,5.9-.3,1.7,1.5,1.9,4.2,.3,5.9-23.3,25.6-56.5,40.4-91.1,40.4h0Z"/><path class="cls-13" d="M848.12,381.44c-21.8,0-39.5,17.7-39.5,39.5s17.7,39.5,39.5,39.5,39.5-17.7,39.5-39.5-17.7-39.5-39.5-39.5h0Zm0,87.4c-26.4,0-47.9-21.5-47.9-47.9s21.5-47.9,47.9-47.9,47.9,21.5,47.9,47.9-21.5,47.9-47.9,47.9Z"/><path class="cls-13" d="M695.92,521.34c-10.3,0-18.6,8.4-18.6,18.6s8.4,18.6,18.6,18.6,18.6-8.4,18.6-18.6c0-10.3-8.4-18.6-18.6-18.6h0Zm0,45.6c-14.9,0-27-12.1-27-27s12.1-27,27-27,27,12.1,27,27c0,14.9-12.2,27-27,27Z"/><path class="cls-13" d="M1039.92,378.24c-10.3,0-18.6,8.4-18.6,18.6s8.4,18.6,18.6,18.6,18.6-8.4,18.6-18.6c0-10.3-8.4-18.6-18.6-18.6h0Zm0,45.6c-14.9,0-27-12.1-27-27s12.1-27,27-27,27,12.1,27,27-12.1,27-27,27h0Z"/><path class="cls-13" d="M848.12,425.14c-.8,0-1.6-.2-2.3-.7l-221.9-150.4c-1.9-1.3-2.4-3.9-1.1-5.8,1.3-1.9,3.9-2.4,5.8-1.1l215.3,146V152.94c0-2.3,1.9-4.2,4.2-4.2s4.2,1.9,4.2,4.2V420.94c0,1.5-.9,3-2.2,3.7-.6,.3-1.3,.5-2,.5h0Z"/><path class="cls-13" d="M949.72,463.34c-10.3,0-18.6,8.4-18.6,18.6s8.4,18.6,18.6,18.6,18.6-8.4,18.6-18.6-8.4-18.6-18.6-18.6h0Zm0,45.6c-14.9,0-27-12.1-27-27s12.1-27,27-27,27,12.1,27,27-12.1,27-27,27Z"/></g></svg>